<svg width="88" height="88" viewBox="0 0 88 88" fill="none" xmlns="http://www.w3.org/2000/svg">
<path d="M62.846 70.4617H62.7811C62.6851 70.4713 62.6131 70.4928 62.5651 70.5264C62.5219 70.56 62.5004 70.6128 62.5004 70.6848C62.5004 70.7808 62.5532 70.9416 62.6588 71.1672L63.4075 72.7369C63.4747 72.5545 63.5348 72.3865 63.5876 72.2329C63.6404 72.0745 63.6883 71.9352 63.7315 71.8152L63.9475 71.1745C64.0579 70.8529 64.1492 70.6321 64.2212 70.5121L63.8179 70.5336V70.1736H64.934V70.4544H64.9267C64.7731 70.5072 64.6579 70.5936 64.5811 70.7136C64.5043 70.8288 64.4155 71.0185 64.3147 71.2825L63.4796 73.5648C63.3164 74.0064 63.1819 74.3424 63.0763 74.5728C62.9707 74.8032 62.8484 74.9832 62.7092 75.1128C62.57 75.2424 62.4019 75.3072 62.2052 75.3072C62.0564 75.3072 61.9291 75.2688 61.8235 75.192C61.7227 75.1152 61.6723 75.0072 61.6723 74.868C61.6723 74.7768 61.7035 74.6929 61.7659 74.6161C61.8331 74.5441 61.9147 74.5081 62.0107 74.5081C62.1115 74.5081 62.186 74.5441 62.234 74.6161C62.2819 74.688 62.3059 74.76 62.3059 74.832C62.3059 74.856 62.3035 74.8776 62.2987 74.8968C62.3515 74.9064 62.4067 74.8921 62.4643 74.8537C62.5267 74.8153 62.5867 74.7504 62.6443 74.6592C62.7547 74.4672 62.9059 74.1024 63.0979 73.5648L62.0611 71.3904C61.8931 71.0208 61.7779 70.7304 61.7155 70.5192L61.3916 70.5336V70.1736H62.846V70.4617Z" fill="#4F4F4F"/>
<path fill-rule="evenodd" clip-rule="evenodd" d="M30.7576 70.0728C31.0216 70.0728 31.2592 70.1305 31.4704 70.2457C31.6816 70.3609 31.8472 70.5336 31.9672 70.764C32.092 70.9944 32.1519 71.2752 32.1471 71.6064H32.1399L29.7927 71.6424H29.8C29.8048 72.1464 29.8936 72.5352 30.0664 72.8088C30.2392 73.0824 30.5056 73.2192 30.8656 73.2192C31.0768 73.2192 31.288 73.1664 31.4992 73.0608C31.7152 72.9552 31.8759 72.8256 31.9815 72.672H31.996L32.212 72.8448C32.0392 73.1088 31.8112 73.308 31.528 73.4424C31.2448 73.5768 30.9712 73.644 30.7072 73.644C30.3952 73.644 30.112 73.572 29.8576 73.428C29.608 73.2792 29.4087 73.0704 29.2599 72.8016C29.1159 72.528 29.0439 72.216 29.0439 71.8656C29.0439 71.5536 29.116 71.2608 29.2599 70.9873C29.4087 70.7089 29.6128 70.4881 29.8719 70.3249C30.1359 70.1569 30.4312 70.0728 30.7576 70.0728ZM30.7647 70.4112C30.5103 70.4112 30.304 70.4809 30.1456 70.6201C29.992 70.7593 29.8864 70.9801 29.8288 71.2825H31.4487C31.4439 71.0377 31.3839 70.8312 31.2687 70.6632C31.1583 70.4952 30.9903 70.4112 30.7647 70.4112Z" fill="#4F4F4F"/>
<path d="M66.678 70.0728C66.966 70.0728 67.23 70.1544 67.47 70.3176L67.4556 70.1016H67.8084V71.34H67.5276C67.5132 71.0808 67.4388 70.86 67.3044 70.6776C67.17 70.4952 66.9708 70.4041 66.7068 70.4041C66.5148 70.4041 66.3636 70.4472 66.2532 70.5336C66.1476 70.62 66.0948 70.7281 66.0948 70.8577C66.0948 71.0208 66.1621 71.1504 66.2965 71.2464C66.4357 71.3376 66.6469 71.4384 66.9301 71.5488C67.1652 71.64 67.3572 71.7265 67.506 71.8081C67.6596 71.8896 67.7868 72 67.8876 72.1392C67.9932 72.2736 68.046 72.4392 68.046 72.636C68.046 72.8568 67.9884 73.044 67.8732 73.1976C67.758 73.3464 67.6092 73.4569 67.4268 73.5289C67.2444 73.6057 67.0524 73.644 66.8509 73.644C66.6589 73.644 66.4788 73.62 66.3108 73.572C66.1428 73.524 65.9964 73.464 65.8717 73.392L65.9005 73.5792H65.5404L65.4972 72.3696H65.7852C65.7852 72.5472 65.826 72.708 65.9076 72.852C65.994 72.9912 66.1092 73.1017 66.2532 73.1833C66.402 73.26 66.5604 73.2984 66.7284 73.2984C66.9108 73.2984 67.0716 73.2576 67.2108 73.176C67.3548 73.0944 67.4268 72.9768 67.4268 72.8232C67.4268 72.6696 67.362 72.5496 67.2324 72.4632C67.1028 72.3768 66.8988 72.2784 66.6204 72.168C66.3852 72.0816 66.1908 72 66.0372 71.9232C65.8884 71.8416 65.7612 71.7312 65.6556 71.592C65.55 71.4528 65.4972 71.2776 65.4972 71.0665C65.4972 70.9225 65.5333 70.7737 65.6052 70.6201C65.682 70.4665 65.8069 70.3368 65.9797 70.2312C66.1573 70.1256 66.39 70.0728 66.678 70.0728Z" fill="#4F4F4F"/>
<path fill-rule="evenodd" clip-rule="evenodd" d="M40.1498 68.3376C40.385 68.3376 40.5937 68.3833 40.7761 68.4745C40.9585 68.5609 41.1002 68.6808 41.201 68.8344C41.3018 68.988 41.3522 69.1585 41.3522 69.3457C41.3522 69.624 41.2586 69.8809 41.0714 70.1161C40.889 70.3465 40.5889 70.5673 40.1714 70.7785C40.2866 70.9033 40.4786 71.1049 40.7473 71.3833C40.9537 71.5993 41.2058 71.8465 41.5034 72.1249C41.5514 71.9617 41.5754 71.808 41.5754 71.664C41.5754 71.472 41.5322 71.3064 41.4458 71.1672C41.3642 71.028 41.225 70.9536 41.0282 70.944V70.7064H42.2882V71.0016L41.6906 70.9728C41.8394 71.1024 41.9137 71.3184 41.9137 71.6208C41.9137 71.8608 41.8658 72.1081 41.7698 72.3624L41.9137 72.492C41.9809 72.5544 42.053 72.6192 42.1298 72.6864C42.3362 72.8736 42.5186 73.0152 42.677 73.1112C42.8354 73.2072 42.9554 73.2552 43.037 73.2552V73.4928H42.3674C42.3146 73.4928 42.2089 73.4424 42.0506 73.3417C41.8922 73.2409 41.7002 73.0921 41.4746 72.8953C41.105 73.3704 40.5889 73.6081 39.9265 73.6081C39.629 73.608 39.3506 73.56 39.0914 73.464C38.837 73.3632 38.6305 73.2072 38.4721 72.996C38.3137 72.7848 38.2345 72.5184 38.2345 72.1968C38.2345 71.8944 38.333 71.6232 38.5298 71.3833C38.7314 71.1385 39.0098 70.9392 39.365 70.7856C39.173 70.5408 39.0337 70.3177 38.9473 70.1161C38.8609 69.9097 38.8177 69.6936 38.8177 69.468C38.8225 69.1272 38.9474 68.8536 39.1922 68.6472C39.4418 68.4408 39.761 68.3376 40.1498 68.3376ZM39.5522 70.9944C39.3458 71.1192 39.1946 71.2872 39.0986 71.4984C39.0026 71.7048 38.9546 71.9016 38.9546 72.0888C38.9546 72.4728 39.065 72.7632 39.2858 72.96C39.5066 73.152 39.773 73.248 40.085 73.248C40.5746 73.248 40.961 73.0632 41.2442 72.6936C41.1482 72.6072 41.0786 72.5425 41.0354 72.4993L40.9274 72.3984C40.8554 72.3264 40.6538 72.1296 40.3226 71.8081C39.9962 71.4817 39.7394 71.2104 39.5522 70.9944ZM40.1137 68.568C39.9122 68.568 39.7466 68.6425 39.617 68.7913C39.4874 68.9401 39.4226 69.1464 39.4226 69.4104C39.4226 69.7704 39.6194 70.1688 40.013 70.6056C40.2722 70.4328 40.469 70.2384 40.6034 70.0224C40.7378 69.8064 40.805 69.588 40.805 69.3672C40.805 69.132 40.7425 68.9401 40.6177 68.7913C40.4977 68.6425 40.3297 68.568 40.1137 68.568Z" fill="#4F4F4F"/>
<path fill-rule="evenodd" clip-rule="evenodd" d="M59.4083 70.0656C59.7635 70.0656 60.0491 70.1736 60.2651 70.3896C60.4859 70.6008 60.5939 70.9128 60.5891 71.3256L60.5819 72.7512C60.5819 72.8568 60.5747 72.9864 60.5603 73.14L61.0283 73.1184V73.4928H60.042C60.0228 73.392 60.0035 73.272 59.9843 73.1329C59.6627 73.4449 59.3219 73.6008 58.9619 73.6008C58.6355 73.6008 58.3811 73.5241 58.1987 73.3705C58.0211 73.2121 57.9323 73.0104 57.9323 72.7656C57.9323 72.5016 58.0356 72.2808 58.242 72.1032C58.4484 71.9208 58.7075 71.7864 59.0195 71.7001C59.3363 71.6089 59.6531 71.5632 59.9699 71.5632V71.2608C59.9699 70.9776 59.9291 70.7592 59.8475 70.6056C59.7659 70.452 59.5931 70.3752 59.3291 70.3752C59.2043 70.3753 59.0795 70.4064 58.9548 70.4688C58.8348 70.5264 58.746 70.6033 58.6884 70.6993C58.7219 70.7329 58.7435 70.7665 58.7531 70.8C58.7627 70.8336 58.7675 70.8816 58.7676 70.944C58.7676 71.0208 58.7387 71.0952 58.6811 71.1672C58.6283 71.2392 58.5491 71.2752 58.4435 71.2752C58.3523 71.2752 58.2779 71.2392 58.2203 71.1672C58.1627 71.0952 58.134 71.0064 58.134 70.9008C58.134 70.6608 58.2515 70.4616 58.4867 70.3032C58.7219 70.1448 59.0291 70.0656 59.4083 70.0656ZM59.9699 71.8873C59.6051 71.9065 59.2763 71.9784 58.9836 72.1032C58.6908 72.228 58.5443 72.4129 58.5443 72.6577C58.5443 72.8064 58.5996 72.9216 58.7099 73.0032C58.8203 73.0848 58.9548 73.1256 59.1132 73.1256C59.2859 73.1256 59.4372 73.0968 59.5668 73.0392C59.7011 72.9768 59.8355 72.8832 59.9699 72.7584C59.9651 72.6912 59.9628 72.5904 59.9628 72.456V72.2976C59.9676 72.2112 59.9699 72.0744 59.9699 71.8873Z" fill="#4F4F4F"/>
<path d="M26.4899 70.4617H26.4827C26.2907 70.4569 26.1947 70.5265 26.1947 70.6705C26.1947 70.7617 26.2403 70.9152 26.3315 71.1312L26.8499 72.2833L27.0155 72.6792L27.138 72.3409L27.6707 70.9081C27.7043 70.8073 27.7595 70.6752 27.8363 70.5121L27.4475 70.5336V70.1736H28.5707V70.4617H28.5635C28.4675 70.4569 28.3859 70.4833 28.3187 70.5409C28.2563 70.5985 28.1988 70.6824 28.146 70.7928C28.0932 70.8984 28.0187 71.0712 27.9227 71.3112L27.0371 73.5577H26.7275L25.7555 71.3904C25.5876 71.0112 25.4939 70.7185 25.4747 70.5121L25.1796 70.5336V70.1736H26.4899V70.4617Z" fill="#4F4F4F"/>
<path d="M53.6609 70.4617H53.6537C53.5337 70.4617 53.4449 70.4832 53.3873 70.5264C53.3345 70.5696 53.3081 70.6344 53.3081 70.7208C53.3081 70.8072 53.3392 70.9368 53.4016 71.1096L53.8841 72.5568C54.2537 71.5008 54.5273 70.7064 54.7049 70.1736H55.0289L55.8928 72.6072L56.4976 70.8936C56.5456 70.74 56.5961 70.6152 56.6489 70.5192L56.3104 70.5336V70.1736H57.5417V70.4617H57.5344C57.3857 70.4665 57.2681 70.488 57.1817 70.5264C57.1001 70.56 57.0377 70.6104 56.9945 70.6776C56.9513 70.74 56.908 70.8312 56.8648 70.9512L55.8928 73.5577H55.5833L54.7337 71.1528L53.8841 73.5577H53.5817L52.6961 71.0161C52.6049 70.7425 52.5496 70.5745 52.5304 70.5121L52.1705 70.5336V70.1736H53.6609V70.4617Z" fill="#4F4F4F"/>
<path d="M35.0827 70.0728C35.2219 70.0728 35.3395 70.1112 35.4355 70.188C35.5363 70.2648 35.5867 70.3776 35.5867 70.5264C35.5867 70.6032 35.5555 70.6824 35.4931 70.764C35.4307 70.8456 35.3443 70.8864 35.234 70.8864C35.1332 70.8864 35.0467 70.8505 34.9747 70.7785C34.9075 70.7017 34.8739 70.6152 34.8739 70.5192C34.7155 70.524 34.5571 70.5913 34.3987 70.7208C34.2451 70.8456 34.1155 71.0064 34.0099 71.2032V72.8016C34.0099 72.9792 34.0028 73.1112 33.9884 73.1976L34.4059 73.1833V73.536H32.9659V73.2552H32.9731C33.0979 73.26 33.1867 73.236 33.2395 73.1833C33.2971 73.1257 33.3307 73.0512 33.3403 72.96C33.3499 72.864 33.3548 72.7104 33.3548 72.4993V71.0088C33.3548 70.8409 33.3619 70.7113 33.3763 70.6201L32.9084 70.6417V70.2888H33.1531C33.3211 70.2888 33.4412 70.2745 33.5132 70.2457C33.5852 70.2169 33.6548 70.1712 33.7219 70.1088H33.9595C33.9787 70.2624 33.9907 70.452 33.9955 70.6776C34.1203 70.5144 34.2811 70.3728 34.4779 70.2528C34.6747 70.1328 34.8763 70.0728 35.0827 70.0728Z" fill="#4F4F4F"/>
<path d="M51.3447 72.8016C51.3447 72.9504 51.3351 73.0824 51.3159 73.1976L51.7335 73.1833V73.536H50.2934V73.2552H50.3007C50.4303 73.26 50.5215 73.2361 50.5743 73.1833C50.6319 73.1257 50.6655 73.0512 50.6751 72.96C50.6847 72.864 50.6894 72.7104 50.6894 72.4993V69.4032C50.6894 69.2496 50.6943 69.1224 50.7039 69.0216L50.2358 69.0432V68.6833H50.243C50.5214 68.6833 50.7158 68.6688 50.8262 68.64C50.9414 68.6112 51.0327 68.568 51.0999 68.5104H51.3375L51.3447 72.8016Z" fill="#4F4F4F"/>
<path d="M24.423 69.7416H24.0846C24.0894 69.3433 24.0102 69.0744 23.847 68.9352C23.6887 68.7912 23.4606 68.7241 23.1631 68.7336L22.5438 68.748C22.3854 68.7528 22.2702 68.7841 22.1982 68.8417C22.131 68.8992 22.0878 68.9808 22.0686 69.0864C22.0542 69.192 22.047 69.36 22.047 69.5904V70.7136L23.2998 70.7208L23.2494 70.1016H23.6671V71.6424H23.3286C23.3286 71.46 23.3094 71.3232 23.271 71.232C23.2374 71.1408 23.1798 71.0808 23.0982 71.052C23.0214 71.0184 22.9062 71.0016 22.7526 71.0016L22.5222 71.0088L22.047 71.0304V72.6504C22.047 72.8904 22.0399 73.0728 22.0255 73.1976L23.3502 73.176C23.6766 73.1712 23.9238 73.0872 24.0918 72.924C24.2598 72.7608 24.3414 72.4728 24.3366 72.06H24.6822L24.639 73.4928H20.823V73.2264H20.8446C21.0078 73.2264 21.123 73.1928 21.1902 73.1256C21.2574 73.0536 21.2958 72.9696 21.3054 72.8736C21.315 72.7776 21.3198 72.6048 21.3198 72.3552V69.2736C21.3198 69.0816 21.327 68.9136 21.3414 68.7696L20.823 68.7984V68.4528H24.387L24.423 69.7416Z" fill="#4F4F4F"/>
<path fill-rule="evenodd" clip-rule="evenodd" d="M49.3144 72.3913C49.444 72.7368 49.5064 72.9984 49.5016 73.176L49.9912 73.1472V73.4928H48.2417V73.2264H48.2633C48.5368 73.2264 48.6736 73.1184 48.6736 72.9024C48.6736 72.8256 48.6472 72.7128 48.5944 72.564L48.3496 71.9088L46.5425 71.952H46.564C46.5064 72.1104 46.4248 72.36 46.3192 72.7008C46.276 72.8448 46.2185 73.0032 46.1465 73.176L46.7009 73.1472V73.4928H45.2536V73.2264H45.2753C45.3857 73.2312 45.4745 73.2097 45.5417 73.1617C45.6137 73.1089 45.6712 73.0392 45.7144 72.9528C45.7576 72.8664 45.8104 72.7344 45.8728 72.5568C45.8776 72.5375 45.9041 72.4632 45.952 72.3336L47.4425 68.3016H47.7016L49.3144 72.3913ZM47.1904 70.188C47.0224 70.6488 46.8544 71.124 46.6864 71.6136H48.2344L47.7304 70.26L47.4496 69.4825L47.1904 70.188Z" fill="#4F4F4F"/>
<path d="M73.3274 56.9943V56.9928C73.3358 56.9928 73.3442 56.9926 73.3526 56.9926C73.3439 56.9931 73.3355 56.9939 73.3274 56.9943Z" fill="#4F4F4F"/>
<path fill-rule="evenodd" clip-rule="evenodd" d="M40.8774 23.0928H40.0774C40.0774 19.1225 39.4637 16.5411 38.2363 15.3486L38.1185 15.2371C36.8604 14.0743 34.2134 13.4928 30.1774 13.4928H25.6774L25.7274 27.8428V28.6428L25.7262 28.9857C31.7266 28.8526 33.5774 26.788 33.5774 20.4928L33.5789 20.795C33.6395 26.9714 35.5989 28.9307 41.7753 28.9914L42.0774 28.9928C35.6626 28.9928 33.6405 30.9147 33.5789 37.1907L33.5774 37.4928C33.5774 31.1976 31.7266 29.1329 25.7262 28.9999L25.6774 44.3928H29.7274C32.2608 44.3928 34.2107 44.2595 35.5774 43.9928C36.9441 43.7262 38.0608 43.1428 38.9274 42.2428C39.7941 41.3428 40.3607 40.2262 40.6274 38.8928C40.9274 37.5262 41.1441 35.5428 41.2774 32.9428H42.0774L41.5774 45.1928H16.8274V44.3928H17.5043C19.7934 44.04 20.4469 41.9066 20.4774 40.7928V29.7673C14.9303 30.2931 10.6797 32.8206 7.80134 35.9442C5.50001 38.4416 4.09078 41.3028 3.58718 43.8067C3.26393 50.3416 7.61528 61.6564 27.6345 59.4733C36.39 57.0593 44.33 50.5267 50.7811 44.3322L50.8348 44.2808L56.6274 27.5428C56.8607 26.8095 57.0774 26.2595 57.2774 25.8928C57.7441 24.9595 58.5107 24.4928 59.5774 24.4928H59.7274L63.131 35.5126C64.342 34.9409 65.5654 34.4555 66.7883 34.0796C69.6857 33.1891 72.6054 32.9048 75.3558 33.5638C78.1152 34.225 80.6648 35.8268 82.824 38.6382L82.8821 38.7146C85.3308 41.9564 86.348 46.7193 85.066 50.7143C84.4164 52.7384 83.1749 54.5676 81.2317 55.887C79.3001 57.1985 76.7069 57.9848 73.3774 57.9926L60.5774 57.9928V57.1928H64.2774L60.8274 45.8928L60.5774 45.0928L58.7612 39.157C56.2103 40.8573 53.7988 42.842 51.6797 44.8567L51.6481 44.8868L51.5774 45.0928L51.2774 45.8928L49.6774 50.5928C49.3107 51.5928 49.1274 52.5762 49.1274 53.5428C49.1274 54.4762 49.2941 55.1928 49.6274 55.6928C49.9941 56.1928 50.5607 56.5428 51.3274 56.7428C52.4941 57.0428 54.0441 57.1928 55.9774 57.1928H56.8274V57.9928H42.0274V57.1928C43.7941 57.1928 45.1274 56.7095 46.0274 55.7428C46.9607 54.7428 47.7774 53.1928 48.4774 51.0928L50.1251 46.3317C42.2011 53.7438 31.998 61.4429 20.7274 61.4429C8.74639 61.4429 2.37742 52.1141 2.37742 45.7928C2.37742 42.6172 3.99332 38.6011 7.06599 35.2666C10.1139 31.959 14.619 29.2941 20.4774 28.7631V17.1428C20.4774 14.3028 18.0441 13.5262 16.8274 13.4928V12.6928H40.8774V23.0928ZM83.9229 42.841C79.2062 33.0953 69.8219 33.8858 65.6774 35.5239C65.7322 35.5008 65.7869 35.4779 65.8415 35.4554C65.0358 35.7523 64.2303 36.0954 63.4293 36.4781L69.8274 57.1928H73.3774V57.1958C74.1849 57.1659 76.2016 56.7889 76.3235 56.7441C78.0847 56.4315 79.5208 55.8399 80.67 55.0596C82.4111 53.8774 83.5259 52.241 84.1138 50.4088C84.8832 48.0114 84.7472 45.283 83.9229 42.841ZM52.3312 42.8967C54.2095 41.2194 56.2802 39.5894 58.456 38.1596L56.4774 31.6928H56.1774L52.3312 42.8967Z" fill="#4F4F4F"/>
</svg>
