<svg width="18" height="18" viewBox="0 0 18 18" fill="none" xmlns="http://www.w3.org/2000/svg">
<g clip-path="url(#clip0_377_1429)">
<path d="M9.00015 0.457886C4.28245 0.457886 0.458008 4.28233 0.458008 9.00003C0.458008 13.7177 4.28245 17.5422 9.00015 17.5422C13.7178 17.5422 17.5423 13.7177 17.5423 9.00003C17.5423 4.28233 13.7178 0.457886 9.00015 0.457886ZM10.8907 5.3483C11.9057 5.33244 12.8236 5.88427 13.2588 6.82501C13.6613 8.06869 13.3244 9.33391 12.6145 10.2874C12.146 10.934 11.586 11.4916 11.0134 11.9789C10.4867 12.4692 9.30774 13.4394 8.99528 13.4664C8.71913 13.4136 8.4091 13.1008 8.18986 12.9401C6.95788 12.0035 5.63195 10.8651 4.95952 9.61992C4.39572 8.42444 4.3947 6.94531 5.27216 6.02879C6.40993 5.00305 8.12509 5.20381 8.99528 6.27544C9.22898 5.97226 9.51642 5.7335 9.85749 5.55979C10.2032 5.42184 10.5523 5.3536 10.8907 5.3483Z" fill="#FAA196"/>
</g>
<defs>
<clipPath id="clip0_377_1429">
<rect width="18" height="18" fill="white"/>
</clipPath>
</defs>
</svg>
